<mxfile host="drawio-plugin" modified="2022-09-13T20:13:14.660Z" agent="5.0 (X11; Linux x86_64) AppleWebKit/537.36 (KHTML, like Gecko) Chrome/98.0.4758.102 Safari/537.36" version="15.5.4" etag="1OKTyNHNWN-4Xibb3aL8" type="embed"><diagram id="6OWMYv59f2pQrZQNCbwO" name="Page-1"><mxGraphModel dx="1074" dy="723" grid="1" gridSize="10" guides="1" tooltips="1" connect="1" arrows="1" fold="1" page="1" pageScale="1" pageWidth="850" pageHeight="1100" math="0" shadow="0"><root><mxCell id="0"/><mxCell id="1" parent="0"/><mxCell id="2" value="John&lt;br&gt;" style="shape=umlActor;verticalLabelPosition=bottom;verticalAlign=top;html=1;outlineConnect=0;" parent="1" vertex="1"><mxGeometry x="50" y="80" width="70" height="130" as="geometry"/></mxCell><mxCell id="6" style="edgeStyle=orthogonalEdgeStyle;rounded=0;orthogonalLoop=1;jettySize=auto;html=1;exitX=0;exitY=1;exitDx=0;exitDy=-15;exitPerimeter=0;" parent="1" source="3" edge="1"><mxGeometry relative="1" as="geometry"><mxPoint x="130" y="170" as="targetPoint"/></mxGeometry></mxCell><mxCell id="3" value="DB" style="shape=cylinder3;whiteSpace=wrap;html=1;boundedLbl=1;backgroundOutline=1;size=15;" parent="1" vertex="1"><mxGeometry x="580" y="105" width="60" height="80" as="geometry"/></mxCell><mxCell id="4" value="" style="endArrow=classic;html=1;rounded=0;entryX=0;entryY=0;entryDx=0;entryDy=52.5;entryPerimeter=0;" parent="1" source="2" target="3" edge="1"><mxGeometry width="50" height="50" relative="1" as="geometry"><mxPoint x="510" y="390" as="sourcePoint"/><mxPoint x="560" y="340" as="targetPoint"/></mxGeometry></mxCell><mxCell id="8" value="John" style="shape=umlActor;verticalLabelPosition=bottom;verticalAlign=top;html=1;outlineConnect=0;" parent="1" vertex="1"><mxGeometry x="70" y="320" width="70" height="120" as="geometry"/></mxCell><mxCell id="11" style="edgeStyle=orthogonalEdgeStyle;rounded=0;orthogonalLoop=1;jettySize=auto;html=1;exitX=1;exitY=0.25;exitDx=0;exitDy=0;entryX=0;entryY=0;entryDx=0;entryDy=27.5;entryPerimeter=0;" parent="1" source="9" target="10" edge="1"><mxGeometry relative="1" as="geometry"/></mxCell><mxCell id="9" value="python adapter for sql" style="whiteSpace=wrap;html=1;aspect=fixed;" parent="1" vertex="1"><mxGeometry x="160" y="320" width="140" height="140" as="geometry"/></mxCell><mxCell id="12" style="edgeStyle=orthogonalEdgeStyle;rounded=0;orthogonalLoop=1;jettySize=auto;html=1;exitX=0;exitY=1;exitDx=0;exitDy=-15;exitPerimeter=0;entryX=1.014;entryY=0.586;entryDx=0;entryDy=0;entryPerimeter=0;" parent="1" source="10" target="9" edge="1"><mxGeometry relative="1" as="geometry"/></mxCell><mxCell id="10" value="" style="shape=cylinder3;whiteSpace=wrap;html=1;boundedLbl=1;backgroundOutline=1;size=15;" parent="1" vertex="1"><mxGeometry x="410" y="320" width="60" height="80" as="geometry"/></mxCell><mxCell id="17" value="db (5432)&lt;br&gt;oulook.com (80)&lt;br&gt;nginx(8000)&lt;br&gt;....." style="rounded=0;whiteSpace=wrap;html=1;" parent="1" vertex="1"><mxGeometry x="360" y="760" width="340" height="250" as="geometry"/></mxCell><mxCell id="19" style="edgeStyle=orthogonalEdgeStyle;rounded=0;orthogonalLoop=1;jettySize=auto;html=1;exitX=1;exitY=0.3333333333333333;exitDx=0;exitDy=0;exitPerimeter=0;entryX=-0.012;entryY=0.412;entryDx=0;entryDy=0;entryPerimeter=0;" parent="1" source="18" target="17" edge="1"><mxGeometry relative="1" as="geometry"/></mxCell><mxCell id="18" value="Actor" style="shape=umlActor;verticalLabelPosition=bottom;verticalAlign=top;html=1;outlineConnect=0;" parent="1" vertex="1"><mxGeometry x="20" y="820" width="90" height="130" as="geometry"/></mxCell><mxCell id="20" value="172.168.0.1:5432" style="text;html=1;align=center;verticalAlign=middle;resizable=0;points=[];autosize=1;strokeColor=none;fillColor=none;" parent="1" vertex="1"><mxGeometry x="135" y="820" width="110" height="20" as="geometry"/></mxCell><mxCell id="21" value="Actor" style="shape=umlActor;verticalLabelPosition=bottom;verticalAlign=top;html=1;outlineConnect=0;" parent="1" vertex="1"><mxGeometry x="30" y="1160" width="90" height="130" as="geometry"/></mxCell><mxCell id="22" value="test framework" style="rounded=0;whiteSpace=wrap;html=1;" parent="1" vertex="1"><mxGeometry x="150" y="1160" width="160" height="120" as="geometry"/></mxCell><mxCell id="23" value="&lt;span style=&quot;color: rgba(0 , 0 , 0 , 0) ; font-family: monospace ; font-size: 0px&quot;&gt;%3CmxGraphModel%3E%3Croot%3E%3CmxCell%20id%3D%220%22%2F%3E%3CmxCell%20id%3D%221%22%20parent%3D%220%22%2F%3E%3CmxCell%20id%3D%222%22%20value%3D%22python%20adapter%20for%20sql%22%20style%3D%22whiteSpace%3Dwrap%3Bhtml%3D1%3Baspect%3Dfixed%3B%22%20vertex%3D%221%22%20parent%3D%221%22%3E%3CmxGeometry%20x%3D%22160%22%20y%3D%22320%22%20width%3D%22140%22%20height%3D%22140%22%20as%3D%22geometry%22%2F%3E%3C%2FmxCell%3E%3C%2Froot%3E%3C%2FmxGraphModel%3E&lt;/span&gt;" style="rounded=0;whiteSpace=wrap;html=1;" parent="1" vertex="1"><mxGeometry x="420" y="1150" width="420" height="350" as="geometry"/></mxCell><mxCell id="24" value="" style="curved=1;endArrow=classic;html=1;entryX=1.013;entryY=0.4;entryDx=0;entryDy=0;entryPerimeter=0;" parent="1" target="22" edge="1"><mxGeometry width="50" height="50" relative="1" as="geometry"><mxPoint x="420" y="1200" as="sourcePoint"/><mxPoint x="470" y="1150" as="targetPoint"/><Array as="points"><mxPoint x="470" y="1200"/><mxPoint x="420" y="1150"/></Array></mxGeometry></mxCell><mxCell id="25" value="use" style="text;html=1;align=center;verticalAlign=middle;resizable=0;points=[];autosize=1;strokeColor=none;fillColor=none;" parent="1" vertex="1"><mxGeometry x="345" y="1160" width="30" height="20" as="geometry"/></mxCell><mxCell id="40" style="edgeStyle=orthogonalEdgeStyle;rounded=0;orthogonalLoop=1;jettySize=auto;html=1;exitX=0.25;exitY=0;exitDx=0;exitDy=0;entryX=0.5;entryY=0;entryDx=0;entryDy=0;" edge="1" parent="1" source="27" target="28"><mxGeometry relative="1" as="geometry"/></mxCell><mxCell id="27" value="python adapter" style="rounded=0;whiteSpace=wrap;html=1;" parent="1" vertex="1"><mxGeometry x="610" y="1180" width="210" height="140" as="geometry"/></mxCell><mxCell id="28" value="PObject" style="rounded=0;whiteSpace=wrap;html=1;" parent="1" vertex="1"><mxGeometry x="430" y="1220" width="120" height="60" as="geometry"/></mxCell><mxCell id="29" value="PObject" style="rounded=0;whiteSpace=wrap;html=1;" parent="1" vertex="1"><mxGeometry x="440" y="1230" width="120" height="60" as="geometry"/></mxCell><mxCell id="30" value="PObject" style="rounded=0;whiteSpace=wrap;html=1;" parent="1" vertex="1"><mxGeometry x="450" y="1240" width="120" height="60" as="geometry"/></mxCell><mxCell id="31" value="PyObject" style="rounded=0;whiteSpace=wrap;html=1;" parent="1" vertex="1"><mxGeometry x="460" y="1250" width="120" height="60" as="geometry"/></mxCell><mxCell id="32" value="ORM" style="text;html=1;align=center;verticalAlign=middle;resizable=0;points=[];autosize=1;strokeColor=none;fillColor=none;" parent="1" vertex="1"><mxGeometry x="580" y="1520" width="40" height="20" as="geometry"/></mxCell><mxCell id="33" value="Direct interaction with DBMS" style="text;html=1;align=center;verticalAlign=middle;resizable=0;points=[];autosize=1;strokeColor=none;fillColor=none;" vertex="1" parent="1"><mxGeometry x="185" y="70" width="170" height="20" as="geometry"/></mxCell><mxCell id="34" value="Interaction via python adapter" style="text;html=1;align=center;verticalAlign=middle;resizable=0;points=[];autosize=1;strokeColor=none;fillColor=none;" vertex="1" parent="1"><mxGeometry x="145" y="240" width="170" height="20" as="geometry"/></mxCell><mxCell id="36" value="addressing to proper application by meas of port" style="text;html=1;align=center;verticalAlign=middle;resizable=0;points=[];autosize=1;strokeColor=none;fillColor=none;" vertex="1" parent="1"><mxGeometry x="35" y="700" width="270" height="20" as="geometry"/></mxCell><mxCell id="37" value="Interaction with db via ORM" style="text;html=1;align=center;verticalAlign=middle;resizable=0;points=[];autosize=1;strokeColor=none;fillColor=none;" vertex="1" parent="1"><mxGeometry x="260" y="1130" width="160" height="20" as="geometry"/></mxCell></root></mxGraphModel></diagram></mxfile>